# File created by Blade
# Date/Time:  Wed Jan 21 18:02:19 2015
# Frame Rate: 120.000 fps
#------------------------------------------------------
:FULLY-SPECIFIED
:DEGREES
172
root 20.445590 35.077917 -19.540567 -171.024503 0.310226 -178.470719
Spine -16.334910 7.316644 -1.023030
Head 6.902052 -5.963779 0.113551
LeftShoulder -9.081842 -17.918266 -2.591330
LeftArm -27.043558 2.804958 -71.260471
LeftForeArm -7.102523 -0.000000 2.176847
LeftHand -0.664155 -0.000000 1.827390
LeftHandThumb1 -26.253704 0.000000 33.147579
RightShoulder -10.244105 -14.308724 9.088474
RightArm 15.856965 -11.993854 65.750955
RightForeArm -21.930835 0.000000 13.943987
RightHand -1.902396 -0.000000 2.264116
RightHandThumb1 -24.326973 -0.000000 -32.862282
LeftUpLeg -29.947827 2.061316 -6.320441
LeftLeg 25.169068 -0.000000 -0.000000
LeftFoot -26.069266 26.327891 -11.305476
LeftToeBase 16.553905 -0.000000 -0.000000
RightUpLeg 3.531640 -5.671202 7.958094
RightLeg -5.197655 -0.000000 0.000000
RightFoot -25.349493 -20.988386 15.417256
RightToeBase 24.168210 -0.000000 -0.000000
173
root 20.413883 35.052001 -19.671794 -171.121006 0.181861 -178.410285
Spine -16.591869 7.384037 -0.895533
Head 7.012469 -6.097767 -0.074067
LeftShoulder -9.291993 -17.809681 -2.591110
LeftArm -27.083862 2.493172 -70.866987
LeftForeArm -6.808840 -0.000000 2.162906
LeftHand -0.568210 -0.000000 1.598161
LeftHandThumb1 -26.253704 0.000000 33.147579
RightShoulder -10.216709 -14.303578 9.038138
RightArm 15.909290 -12.107687 65.697068
RightForeArm -21.912147 -0.000000 13.951927
RightHand -2.025664 -0.000000 2.124190
RightHandThumb1 -24.326973 -0.000000 -32.862282
LeftUpLeg -29.851780 2.084151 -6.311869
LeftLeg 24.829317 -0.000000 -0.000000
LeftFoot -25.896028 26.515933 -11.357178
LeftToeBase 16.553513 -0.000000 -0.000000
RightUpLeg 3.750295 -5.901531 7.966190
RightLeg -5.021938 -0.000000 0.000000
RightFoot -25.624717 -20.902273 15.478364
RightToeBase 24.089883 -0.000000 -0.000000
174
root 20.376323 35.022752 -19.817493 -171.341893 -0.020068 -178.379233
Spine -16.751177 7.397756 -0.759229
Head 7.231466 -6.286070 -0.302318
LeftShoulder -9.411953 -17.721010 -2.597194
LeftArm -27.165718 1.906615 -70.362349
LeftForeArm -6.171598 -0.000000 2.098827
LeftHand -0.504743 -0.000000 1.098618
LeftHandThumb1 -26.253704 0.000000 33.147579
RightShoulder -10.162739 -14.305009 8.955320
RightArm 15.930624 -12.155722 65.687014
RightForeArm -21.881251 -0.000000 13.951756
RightHand -2.029902 -0.000000 2.147686
RightHandThumb1 -24.326973 -0.000000 -32.862282
LeftUpLeg -29.602967 1.869502 -6.256575
LeftLeg 24.566699 -0.000000 -0.000000
LeftFoot -25.524520 26.782879 -11.179350
LeftToeBase 16.419617 -0.000000 -0.000000
RightUpLeg 4.154059 -6.055330 7.938824
RightLeg -4.902861 -0.000000 0.000000
RightFoot -25.897617 -21.023614 15.510227
RightToeBase 23.842483 -0.000000 -0.000000
175
root 20.336057 34.992309 -19.975332 -171.679180 -0.179170 -178.379474
Spine -16.762798 7.420246 -0.668439
Head 7.389194 -6.497738 -0.496606
LeftShoulder -9.611471 -17.661560 -2.595357
LeftArm -27.247940 1.698102 -70.021311
LeftForeArm -5.896491 0.000000 2.065026
LeftHand -0.478545 -0.000000 1.278230
LeftHandThumb1 -26.253704 0.000000 33.147579
RightShoulder -10.061712 -14.261680 8.933266
RightArm 15.894662 -12.151749 65.651334
RightForeArm -21.686403 -0.000000 13.928575
RightHand -1.906851 -0.000000 2.033251
RightHandThumb1 -24.326973 -0.000000 -32.862282
LeftUpLeg -29.231788 1.941039 -6.329404
LeftLeg 24.342270 -0.000000 -0.000000
LeftFoot -24.892367 27.035954 -10.796428
LeftToeBase 16.311794 -0.000000 -0.000000
RightUpLeg 4.676295 -6.154205 7.855100
RightLeg -4.754189 -0.000000 0.000000
RightFoot -26.222552 -21.179254 15.543070
RightToeBase 23.802321 -0.000000 -0.000000
176
root 20.297366 34.957782 -20.139807 -172.034053 -0.382903 -178.335318
Spine -16.793667 7.455732 -0.515949
Head 7.604831 -6.680147 -0.723399
LeftShoulder -9.750743 -17.621657 -2.603279
LeftArm -27.401750 1.545277 -69.712704
LeftForeArm -5.758137 0.000000 2.083640
LeftHand -0.521241 -0.000000 0.998625
LeftHandThumb1 -26.253704 0.000000 33.147579
RightShoulder -9.985324 -14.210946 8.840379
RightArm 15.797424 -12.119684 65.709346
RightForeArm -21.605410 -0.000000 13.913576
RightHand -1.855376 -0.000000 1.971209
RightHandThumb1 -24.326973 -0.000000 -32.862282
LeftUpLeg -28.842979 1.898681 -6.319869
LeftLeg 24.217141 -0.000000 -0.000000
LeftFoot -23.960241 27.360047 -10.227154
LeftToeBase 15.937394 -0.000000 -0.000000
RightUpLeg 5.222238 -6.233125 7.822938
RightLeg -4.593015 -0.000000 0.000000
RightFoot -26.652716 -21.313687 15.683015
RightToeBase 23.439084 -0.000000 -0.000000
177
root 20.255789 34.920597 -20.314146 -172.489033 -0.590159 -178.294975
Spine -16.711583 7.495347 -0.366679
Head 7.836574 -6.883529 -0.948596
LeftShoulder -9.900517 -17.531814 -2.620550
LeftArm -27.470881 1.390595 -69.415460
LeftForeArm -5.650352 -0.000000 2.057588
LeftHand -0.424903 -0.000000 1.168704
LeftHandThumb1 -26.253704 0.000000 33.147579
RightShoulder -9.877614 -14.089383 8.778964
RightArm 15.586093 -12.038717 65.753647
RightForeArm -21.301641 0.000000 13.947719
RightHand -1.848738 -0.000000 1.594906
RightHandThumb1 -24.326973 -0.000000 -32.862282
LeftUpLeg -28.343947 1.942111 -6.346961
LeftLeg 24.158039 -0.000000 -0.000000
LeftFoot -22.923834 27.690317 -9.647394
LeftToeBase 15.652222 -0.000000 -0.000000
RightUpLeg 5.870424 -6.339191 7.773901
RightLeg -4.408309 -0.000000 0.000000
RightFoot -27.111590 -21.490071 15.786425
RightToeBase 23.518916 -0.000000 -0.000000
178
root 20.212981 34.882180 -20.490606 -172.864587 -0.757808 -178.231515
Spine -16.755175 7.578473 -0.211275
Head 8.096776 -7.058901 -1.149726
LeftShoulder -10.077420 -17.427963 -2.602179
LeftArm -27.577121 1.410750 -69.220671
LeftForeArm -5.780961 0.000000 2.062504
LeftHand -0.579187 -0.000000 1.004893
LeftHandThumb1 -26.253704 0.000000 33.147579
RightShoulder -9.804833 -14.079447 8.692261
RightArm 15.449500 -11.883830 65.844720
RightForeArm -21.240069 0.000000 13.917299
RightHand -1.777809 -0.000000 1.531627
RightHandThumb1 -24.326973 -0.000000 -32.862282
LeftUpLeg -27.898444 2.073500 -6.371518
LeftLeg 24.132751 -0.000000 -0.000000
LeftFoot -21.675213 27.949098 -9.007698
LeftToeBase 15.063902 -0.000000 -0.000000
RightUpLeg 6.402265 -6.451072 7.739112
RightLeg -4.135373 -0.000000 0.000000
RightFoot -27.577136 -21.508275 15.974926
RightToeBase 23.557150 -0.000000 -0.000000
179
root 20.172463 34.836586 -20.682916 -173.494130 -1.071989 -178.146417
Spine -16.487699 7.560267 0.002222
Head 8.317295 -7.303937 -1.318969
LeftShoulder -10.197404 -17.357522 -2.611304
LeftArm -27.659935 1.308386 -68.970309
LeftForeArm -5.637652 -0.000000 2.125017
LeftHand -0.619986 0.000000 0.859399
LeftHandThumb1 -26.253704 0.000000 33.147579
RightShoulder -9.687552 -13.910730 8.606037
RightArm 15.181213 -11.825559 65.915999
RightForeArm -20.955559 0.000000 13.841220
RightHand -1.939574 -0.000000 1.853752
RightHandThumb1 -24.326973 -0.000000 -32.862282
LeftUpLeg -27.226478 2.125409 -6.366299
LeftLeg 24.267616 -0.000000 -0.000000
LeftFoot -20.402640 28.241772 -8.350120
LeftToeBase 14.826419 -0.000000 -0.000000
RightUpLeg 7.182341 -6.770578 7.714540
RightLeg -3.802357 -0.000000 0.000000
RightFoot -28.105087 -21.530235 16.135632
RightToeBase 23.688624 -0.000000 -0.000000
180
root 20.129472 34.789773 -20.881089 -174.111684 -1.291597 -178.040952
Spine -16.267622 7.620917 0.223456
Head 8.581246 -7.519873 -1.511518
LeftShoulder -10.350523 -17.249125 -2.599800
LeftArm -27.702367 1.188094 -68.714920
LeftForeArm -5.474614 -0.000000 2.127855
LeftHand -0.657937 -0.000000 0.716483
LeftHandThumb1 -26.253704 0.000000 33.147579
RightShoulder -9.620914 -13.876867 8.525635
RightArm 15.019429 -11.650443 65.999092
RightForeArm -20.968011 0.000000 13.787534
RightHand -1.864401 0.000000 1.860864
RightHandThumb1 -24.326973 -0.000000 -32.862282
LeftUpLeg -26.547460 2.358432 -6.367997
LeftLeg 24.456918 -0.000000 -0.000000
LeftFoot -19.834174 28.131894 -7.938181
LeftToeBase 16.329454 -0.000000 -0.000000
RightUpLeg 7.927262 -6.915275 7.700640
RightLeg -3.407028 -0.000000 0.000000
RightFoot -28.692310 -21.573380 16.329922
RightToeBase 23.720313 -0.000000 -0.000000
181
root 20.084813 34.740499 -21.079912 -174.646971 -1.677947 -177.948231
Spine -16.172451 7.503607 0.419150
Head 8.896660 -7.743090 -1.687234
LeftShoulder -10.577590 -17.055141 -2.522055
LeftArm -27.670791 1.112468 -68.490110
LeftForeArm -5.565894 -0.000000 2.157662
LeftHand -0.771812 0.000000 0.364030
LeftHandThumb1 -26.253704 0.000000 33.147579
RightShoulder -9.578595 -13.874770 8.445855
RightArm 14.865812 -11.504404 66.079756
RightForeArm -20.818565 -0.000000 13.686191
RightHand -1.855328 0.000000 1.798540
RightHandThumb1 -24.326973 -0.000000 -32.862282
LeftUpLeg -25.951951 2.441230 -6.350927
LeftLeg 24.721283 -0.000000 -0.000000
LeftFoot -20.129840 28.125008 -7.616027
LeftToeBase 19.893616 -0.000000 -0.000000
RightUpLeg 8.546278 -7.234456 7.686879
RightLeg -2.892932 -0.000000 0.000000
RightFoot -29.326779 -21.529871 16.592387
RightToeBase 23.530012 -0.000000 -0.000000
182
root 20.036408 34.689758 -21.283888 -175.234965 -1.966340 -177.825907
Spine -16.024033 7.528355 0.630620
Head 9.175466 -8.009981 -1.812529
LeftShoulder -10.767147 -16.916449 -2.464803
LeftArm -27.663030 1.245355 -68.397629
LeftForeArm -5.641685 -0.000000 2.148468
LeftHand -0.796826 -0.000000 0.283203
LeftHandThumb1 -26.253704 0.000000 33.147579
RightShoulder -9.624777 -13.890305 8.395500
RightArm 14.794888 -11.496770 66.066123
RightForeArm -20.669478 -0.000000 13.498927
RightHand -1.895950 -0.000000 1.708317
RightHandThumb1 -24.326973 -0.000000 -32.862282
LeftUpLeg -25.331417 2.675682 -6.362582
LeftLeg 25.269579 -0.000000 -0.000000
LeftFoot -20.421990 27.783324 -7.075696
LeftToeBase 21.827007 -0.000000 -0.000000
RightUpLeg 9.162597 -7.388048 7.695767
RightLeg -2.271846 -0.000000 0.000000
RightFoot -30.026865 -21.552355 16.858370
RightToeBase 23.560560 -0.000000 -0.000000
183
root 19.988445 34.637266 -21.484549 -175.789027 -2.319641 -177.692856
Spine -15.927150 7.471398 0.844105
Head 9.493885 -8.251158 -1.935327
LeftShoulder -10.957646 -16.736296 -2.405110
LeftArm -27.638539 1.097461 -68.142687
LeftForeArm -5.471638 -0.000000 2.208406
LeftHand -0.878670 0.000000 0.063910
LeftHandThumb1 -26.253704 0.000000 33.147579
RightShoulder -9.595142 -13.879198 8.328689
RightArm 14.542760 -11.336821 66.136548
RightForeArm -20.426545 0.000000 13.437078
RightHand -1.804558 -0.000000 1.799828
RightHandThumb1 -24.326973 -0.000000 -32.862282
LeftUpLeg -24.763737 2.829104 -6.378631
LeftLeg 25.902616 -0.000000 -0.000000
LeftFoot -21.265887 27.433347 -7.133090
LeftToeBase 21.983763 -0.000000 -0.000000
RightUpLeg 9.646609 -7.497521 7.738366
RightLeg -1.476297 -0.000000 0.000000
RightFoot -30.808464 -21.635271 17.203331
RightToeBase 23.501501 -0.000000 -0.000000
